<?xml version="1.0" encoding="UTF-8"?>
<!DOCTYPE svg PUBLIC "-//W3C//DTD SVG 1.1//EN" "http://www.w3.org/Graphics/SVG/1.1/DTD/svg11.dtd">
<!-- Creator: CorelDRAW X7 -->
<svg xmlns="http://www.w3.org/2000/svg" xml:space="preserve" width="200px" height="200px" version="1.1" style="shape-rendering:geometricPrecision; text-rendering:geometricPrecision; image-rendering:optimizeQuality; fill-rule:evenodd; clip-rule:evenodd"
viewBox="0 0 196 196"
 xmlns:xlink="http://www.w3.org/1999/xlink">
 <defs>
  <style type="text/css">
   <![CDATA[
    .str0 {stroke:#FEFEFE;stroke-width:0.650739}
    .fil0 {fill:none}
    .fil3 {fill:#002248}
    .fil2 {fill:black;fill-rule:nonzero}
    .fil1 {fill:#07285A;fill-rule:nonzero}
   ]]>
  </style>
 </defs>
 <g id="Layer_x0020_1">
  <metadata id="CorelCorpID_0Corel-Layer"/>
  <rect class="fil0" width="196" height="196"/>
  <path class="fil1" d="M45 142c0,1 -1,2 -2,2 -1,0 -3,0 -5,0 -2,-1 -3,-1 -4,-1 -2,0 -3,0 -5,1 -2,0 -4,0 -5,0 -1,0 -2,-1 -2,-2 0,-7 0,-16 1,-29 0,-13 1,-23 1,-29 0,-7 -1,-16 -1,-29 -1,-12 -1,-22 -1,-28 0,-1 1,-2 2,-2 1,0 3,0 5,0 2,0 4,0 5,0 1,0 2,0 4,0 3,0 4,0 5,0 2,0 2,0 2,2 0,6 0,15 0,28 -1,13 -1,22 -1,29 0,6 0,16 1,29 0,13 0,23 0,29z"/>
  <path class="fil1" d="M159 84c0,16 -5,29 -14,41 -10,12 -22,19 -38,19 -3,0 -7,0 -13,-1 -6,0 -10,0 -13,0 -3,0 -7,0 -12,0 -6,1 -10,1 -12,1 -2,0 -3,-1 -3,-2 0,-6 1,-16 1,-28 1,-13 1,-22 1,-28 0,-7 0,-17 -1,-30 0,-13 -1,-23 -1,-29 0,-2 1,-2 3,-2 2,0 5,0 9,0 4,0 7,0 9,0 2,0 5,0 9,0 4,0 7,0 9,0 20,0 35,4 44,11 7,5 12,12 16,21 4,9 6,18 6,27zm-21 0c0,-13 -4,-23 -11,-30 -7,-8 -17,-12 -29,-12 -10,0 -14,0 -12,0 -6,0 -10,1 -10,3 0,5 0,11 0,20 0,9 0,15 0,19 0,5 0,11 0,20 0,8 0,15 0,19 0,2 4,4 10,4 0,0 4,0 13,0 6,0 11,-1 15,-2 5,-2 9,-5 13,-10 7,-8 11,-19 11,-31z"/>
  <path class="fil2" d="M34 152c0,0 0,0 0,0 -1,0 -2,0 -4,0 0,2 0,3 0,5 0,0 0,2 0,3 0,2 0,3 0,4 0,0 0,0 0,0 0,0 -1,0 -1,0 0,0 0,0 0,0 -1,0 -1,0 -1,0 0,0 0,0 -1,0 0,0 0,0 0,0 0,-1 0,-2 0,-4 0,-1 0,-3 0,-3 0,-2 0,-3 0,-5 -1,0 -3,0 -4,0 0,0 0,0 0,0 0,0 0,-1 0,-1 0,0 1,0 1,0 0,-1 0,-1 0,-1 0,0 0,0 0,0l0 0c2,0 4,0 5,0 0,0 2,0 3,0 1,0 2,0 1,0 1,0 1,0 1,0 0,0 0,0 0,1 0,0 0,0 0,0 0,0 0,0 0,1zm10 6c0,1 -1,1 -1,1 0,1 -2,1 -6,1 0,1 0,1 1,2 0,0 1,0 1,0 1,0 2,0 3,-1 0,0 1,0 1,0 0,0 0,0 0,0 0,0 0,0 0,1 0,0 0,0 0,0 0,0 0,0 0,1 -1,1 -2,1 -4,1 -1,0 -2,0 -3,-1 -1,-1 -2,-2 -2,-4 0,-1 1,-3 2,-4 1,-1 2,-1 3,-1 1,0 2,0 3,1 1,1 2,2 2,3zm-3 0c0,-1 0,-1 -1,-2 0,0 0,0 -1,0 -1,0 -1,0 -2,0 0,1 0,1 0,2 0,0 0,0 0,0 1,0 2,0 4,0 0,0 0,0 0,0zm11 -3c0,0 0,0 0,1 0,0 0,0 0,0 -1,0 -1,0 -1,0 -1,0 -1,0 -1,0 -1,0 -2,0 -2,1 -1,0 -1,1 -1,2 0,1 0,1 1,2 0,1 1,1 2,1 0,0 1,0 1,0 0,-1 1,-1 1,-1 0,0 0,1 0,1 0,1 0,1 0,1 0,0 0,1 -1,1 -1,0 -1,0 -2,0 -1,0 -2,0 -3,-1 -1,-1 -2,-3 -2,-4 0,-2 1,-3 2,-4 1,-1 2,-1 3,-1 1,0 2,0 3,0 0,1 0,1 0,1zm10 9c0,0 0,0 0,0 0,0 0,0 -1,0 0,0 -1,0 -1,0 0,0 0,0 0,0 0,-1 0,-1 0,-2 0,-1 0,-1 0,-1 0,-1 0,-1 0,-2 0,0 0,-1 0,-1 0,-1 -1,-2 -2,-2 0,0 -1,0 -1,0 -1,1 -1,1 -1,2l0 6c0,0 0,0 -1,0 0,0 0,0 0,0 -1,0 -1,0 -1,0 -1,0 -1,0 -1,0l0 -5c0,-1 0,-3 0,-5 0,-1 0,-2 0,-4 0,0 0,0 0,0 0,0 0,0 0,0 0,0 1,0 1,0 0,0 1,0 1,-1 0,0 0,0 1,0 0,0 0,0 0,1 0,0 0,1 0,2 0,2 0,3 0,3 0,1 0,1 0,1 0,-1 0,-1 1,-1 1,-1 1,-1 2,-1 1,0 2,0 3,1 0,1 0,1 0,3 0,0 0,0 0,1 0,0 0,0 0,1 0,0 0,1 0,2 0,0 0,1 0,2zm11 0c0,0 0,0 0,0 0,0 -1,0 -1,0 0,0 -1,0 -1,0 0,0 0,0 0,0 0,-1 0,-1 0,-2 0,-1 0,-1 0,-1 0,-1 0,-1 0,-2 0,0 0,-1 0,-1 0,-1 0,-1 -1,-2 0,0 0,0 -1,0 0,0 -1,0 -1,0 -1,1 -1,1 -1,2l0 6c0,0 0,0 -1,0 0,0 0,0 -1,0 0,0 0,0 -1,0 0,0 0,0 0,0 0,-1 0,-2 0,-3 0,-1 0,-2 0,-2 0,-2 0,-3 0,-4 0,0 0,0 0,0 0,0 0,0 0,0 0,0 0,-1 1,-1 1,0 1,0 1,0 0,0 0,0 0,0 0,1 0,1 1,2 0,-1 0,-1 1,-1 1,-1 1,-1 2,-1 1,0 2,0 3,1 0,1 0,1 0,3 0,0 0,0 0,1 0,0 0,0 0,1 0,0 0,1 0,2 0,1 0,1 0,2zm11 -5c0,1 0,3 -1,4 -1,1 -2,1 -4,1 -1,0 -2,0 -3,-1 -1,-1 -2,-3 -2,-4 0,-1 1,-3 2,-4 1,-1 2,-1 3,-1 2,0 3,0 4,1 1,1 1,3 1,4zm-2 0c0,-1 0,-2 -1,-2 0,-1 -1,-1 -2,-1 0,0 -1,0 -2,1 0,0 0,1 0,2 0,1 0,1 0,2 1,1 2,1 2,1 1,0 2,0 2,-1 1,-1 1,-1 1,-2zm6 -9l0 0c0,2 0,5 0,6 0,1 0,2 0,4 0,2 0,3 0,4 0,0 0,0 0,0l-2 0c0,0 0,0 0,0 0,-1 0,-2 0,-4 0,-2 0,-3 0,-4 0,0 0,-1 0,-3 0,-1 0,-2 0,-3 0,0 0,0 0,0 0,0 0,0 0,0 1,0 1,0 1,0 0,0 0,0 1,0 0,0 0,0 0,0 0,0 0,0 0,0zm12 9c0,1 -1,3 -2,4 -1,1 -2,1 -3,1 -2,0 -3,0 -4,-1 -1,-1 -1,-3 -1,-4 0,-1 0,-3 1,-4 1,-1 2,-1 4,-1 1,0 2,0 3,1 1,1 2,3 2,4zm-3 0c0,-1 0,-2 0,-2 -1,-1 -2,-1 -2,-1 -1,0 -2,0 -2,1 -1,0 -1,1 -1,2 0,1 0,1 1,2 0,1 1,1 2,1 0,0 1,0 2,-1 0,-1 0,-1 0,-2zm13 -5c0,1 0,2 0,4 0,2 0,3 0,4 0,1 0,3 -1,3 -1,1 -2,2 -4,2 -1,0 -2,-1 -3,-1 0,0 -1,-1 -1,-1 0,0 1,0 1,-1 0,0 0,0 0,0 0,0 0,0 0,0 1,0 2,1 3,1 1,0 1,0 2,-1 0,0 1,-1 1,-1 0,0 0,-1 -1,-1 0,1 -1,1 -2,1 -2,0 -3,0 -3,-1 -1,-1 -2,-2 -2,-3 0,-2 1,-3 1,-4 1,-1 2,-1 4,-1 1,0 2,0 2,1 0,0 0,0 0,0 1,0 1,0 1,0 0,0 0,0 0,0 0,0 0,-1 0,-1 0,0 0,0 0,0 0,0 0,0 1,0 0,0 1,0 1,0 0,0 0,0 0,0zm-2 5c0,-1 -1,-2 -1,-2 -1,-1 -1,-1 -2,-1 -1,0 -1,0 -2,1 0,0 0,1 0,2 0,0 0,1 0,2 1,0 1,0 2,0 1,0 1,0 2,0 0,-1 1,-2 1,-2zm6 -7c0,1 0,1 -1,1 -1,0 -1,0 -1,-1 0,-1 0,-1 0,-1 0,0 1,-1 1,-1 0,0 1,1 1,1 0,0 0,0 0,1zm0 2c0,1 0,2 0,3 0,1 0,2 0,2 0,1 0,1 0,2 0,1 0,2 0,3 0,0 0,0 0,0l-2 0c0,0 0,0 0,-1 0,0 0,-1 0,-2 0,-1 0,-1 0,-2 0,0 0,-1 0,-2 0,-1 0,-2 0,-3 0,0 0,0 0,0 0,0 0,0 1,0 0,0 0,0 0,0 0,0 0,0 1,0 0,0 0,0 0,0 0,0 0,0 0,0zm11 4c0,1 0,1 -1,1 0,1 -2,1 -6,1 0,1 1,1 1,2 1,0 1,0 2,0 1,0 2,0 3,-1 0,0 0,0 0,0 0,0 0,0 0,0 0,0 0,0 1,1 0,0 0,0 0,0 0,0 0,0 0,1 -1,1 -2,1 -4,1 -2,0 -3,0 -4,-1 -1,-1 -1,-2 -1,-4 0,-1 0,-3 1,-4 1,-1 2,-1 4,-1 1,0 2,0 3,1 1,1 1,2 1,3zm-2 0c0,-1 -1,-1 -1,-2 0,0 -1,0 -2,0 0,0 -1,0 -1,0 -1,1 -1,1 -1,2 0,0 0,0 0,0 1,0 3,0 4,0 0,0 1,0 1,0zm8 3c0,1 0,2 -1,2 -1,1 -2,1 -3,1 0,0 0,0 0,0 0,0 -1,0 -1,-1 0,0 0,0 0,0 0,0 0,-1 0,-1 0,0 0,0 1,0 0,0 0,0 0,0 0,0 0,0 0,0 2,0 2,0 2,-1 0,-1 0,-1 -1,-1 -1,-1 -1,-1 -1,-1 -1,-1 -1,-1 -1,-2 0,-1 0,-2 1,-2 1,-1 2,-1 3,-1 0,0 0,0 0,0 0,0 0,0 0,1 0,0 0,1 0,1 0,0 0,0 0,0 0,0 -1,0 -1,0 -1,0 -1,0 -1,1 0,0 0,0 1,1 1,0 1,1 1,1 1,0 1,1 1,2z"/>
  <path class="fil3" d="M37 178c0,0 -24,-16 -28,-26 -4,-12 -10,-34 10,-52 0,0 24,-18 50,-22 24,-4 47,-8 83,2 0,0 30,8 42,20 -14,-6 -34,-16 -50,-16 -28,-2 -191,16 -107,94l0 0 0 0zm0 0l0 0 0 0z"/>
  <path id="_1" class="fil0 str0" d="M37 178c0,0 -24,-16 -28,-26 -4,-12 -10,-34 10,-52 0,0 24,-18 50,-22 24,-4 47,-8 83,2 0,0 30,8 42,20 -14,-6 -34,-16 -50,-16 -28,-2 -191,16 -107,94m0 0l0 0 0 0z"/>
 </g>
</svg>
